<?xml version="1.0" encoding="UTF-8" standalone="no"?>
<!-- Created with Inkscape (http://www.inkscape.org/) -->

<svg
   width="64pt"
   height="64pt"
   viewBox="0 0 22.577778 22.577778"
   version="1.1"
   id="svg831"
   inkscape:version="1.1.1 (3bf5ae0d25, 2021-09-20)"
   sodipodi:docname="Export - Unblash - 64px.svg"
   inkscape:export-filename="C:\Users\User\Desktop\CARLOS PROJECT\6. JUNI 2\DONE\FILEDLINE\11 - Segway.png"
   inkscape:export-xdpi="576"
   inkscape:export-ydpi="576"
   xmlns:inkscape="http://www.inkscape.org/namespaces/inkscape"
   xmlns:sodipodi="http://sodipodi.sourceforge.net/DTD/sodipodi-0.dtd"
   xmlns="http://www.w3.org/2000/svg"
   xmlns:svg="http://www.w3.org/2000/svg"
   xmlns:rdf="http://www.w3.org/1999/02/22-rdf-syntax-ns#"
   xmlns:cc="http://creativecommons.org/ns#"
   xmlns:dc="http://purl.org/dc/elements/1.1/">
  <defs
     id="defs825">
    <pattern
       id="EMFhbasepattern"
       patternUnits="userSpaceOnUse"
       width="6"
       height="6"
       x="0"
       y="0" />
    <pattern
       id="EMFhbasepattern-9"
       patternUnits="userSpaceOnUse"
       width="6"
       height="6"
       x="0"
       y="0" />
    <pattern
       id="EMFhbasepattern-0"
       patternUnits="userSpaceOnUse"
       width="6"
       height="6"
       x="0"
       y="0" />
    <pattern
       id="EMFhbasepattern-7"
       patternUnits="userSpaceOnUse"
       width="6"
       height="6"
       x="0"
       y="0" />
    <pattern
       id="EMFhbasepattern-2"
       patternUnits="userSpaceOnUse"
       width="6"
       height="6"
       x="0"
       y="0" />
    <pattern
       id="EMFhbasepattern-98"
       patternUnits="userSpaceOnUse"
       width="6"
       height="6"
       x="0"
       y="0" />
    <pattern
       id="EMFhbasepattern-6"
       patternUnits="userSpaceOnUse"
       width="6"
       height="6"
       x="0"
       y="0" />
    <pattern
       id="EMFhbasepattern-01"
       patternUnits="userSpaceOnUse"
       width="6"
       height="6"
       x="0"
       y="0" />
    <pattern
       id="EMFhbasepattern-07"
       patternUnits="userSpaceOnUse"
       width="6"
       height="6"
       x="0"
       y="0" />
    <pattern
       id="EMFhbasepattern-8"
       patternUnits="userSpaceOnUse"
       width="6"
       height="6"
       x="0"
       y="0" />
    <pattern
       id="EMFhbasepattern-4"
       patternUnits="userSpaceOnUse"
       width="6"
       height="6"
       x="0"
       y="0" />
    <pattern
       id="EMFhbasepattern-40"
       patternUnits="userSpaceOnUse"
       width="6"
       height="6"
       x="0"
       y="0" />
    <pattern
       id="EMFhbasepattern-08"
       patternUnits="userSpaceOnUse"
       width="6"
       height="6"
       x="0"
       y="0" />
    <pattern
       id="EMFhbasepattern-04"
       patternUnits="userSpaceOnUse"
       width="6"
       height="6"
       x="0"
       y="0" />
    <pattern
       id="EMFhbasepattern-014"
       patternUnits="userSpaceOnUse"
       width="6"
       height="6"
       x="0"
       y="0" />
    <pattern
       id="EMFhbasepattern-27"
       patternUnits="userSpaceOnUse"
       width="6"
       height="6"
       x="0"
       y="0" />
    <pattern
       id="EMFhbasepattern-09"
       patternUnits="userSpaceOnUse"
       width="6"
       height="6"
       x="0"
       y="0" />
    <pattern
       id="EMFhbasepattern-5"
       patternUnits="userSpaceOnUse"
       width="6"
       height="6"
       x="0"
       y="0" />
    <pattern
       id="EMFhbasepattern-018"
       patternUnits="userSpaceOnUse"
       width="6"
       height="6"
       x="0"
       y="0" />
  </defs>
  <sodipodi:namedview
     id="base"
     pagecolor="#ffffff"
     bordercolor="#666666"
     borderopacity="1.0"
     inkscape:pageopacity="0.0"
     inkscape:pageshadow="2"
     inkscape:zoom="3.2460938"
     inkscape:cx="40.972323"
     inkscape:cy="42.666667"
     inkscape:document-units="pt"
     inkscape:current-layer="layer1"
     showgrid="false"
     units="pt"
     inkscape:window-width="960"
     inkscape:window-height="1001"
     inkscape:window-x="951"
     inkscape:window-y="-9"
     inkscape:window-maximized="0"
     inkscape:pagecheckerboard="true"
     inkscape:showpageshadow="false"
     inkscape:object-paths="true"
     inkscape:snap-intersection-paths="true"
     inkscape:snap-smooth-nodes="true"
     inkscape:snap-midpoints="true"
     showguides="true"
     inkscape:snap-bbox="true"
     inkscape:bbox-nodes="true"
     inkscape:snap-nodes="false"
     inkscape:snap-global="true"
     inkscape:snap-others="false">
    <inkscape:grid
       type="xygrid"
       id="grid1378" />
    <sodipodi:guide
       position="0.97013831,21.607643"
       orientation="78.000048,0"
       id="guide1380"
       inkscape:locked="false" />
    <sodipodi:guide
       position="0.97013831,0.97013129"
       orientation="0,78.000005"
       id="guide1382"
       inkscape:locked="false" />
    <sodipodi:guide
       position="21.607639,0.97013129"
       orientation="-78.000048,0"
       id="guide1384"
       inkscape:locked="false" />
    <sodipodi:guide
       position="21.607639,21.607643"
       orientation="0,-78.000005"
       id="guide1386"
       inkscape:locked="false" />
  </sodipodi:namedview>
  <metadata
     id="metadata828">
    <rdf:RDF>
      <cc:Work
         rdf:about="">
        <dc:format>image/svg+xml</dc:format>
        <dc:type
           rdf:resource="http://purl.org/dc/dcmitype/StillImage" />
      </cc:Work>
    </rdf:RDF>
  </metadata>
  <g
     inkscape:label="Icon"
     inkscape:groupmode="layer"
     id="layer1"
     transform="translate(0,-274.42223)">
    <g
       id="g37872"
       style="display:inline;stroke-width:0.794882"
       transform="matrix(1.2580491,0,0,1.2580491,38.583846,-115.22446)">
      <g
         id="g16200"
         style="display:inline;stroke-width:0.794882">
        <path
           style="color:#000000;fill:#3a4d5c;stroke-width:0.794882;stroke-linecap:round;stroke-linejoin:round;-inkscape-stroke:none"
           d="m -20.679687,313.41406 c -0.406011,0 -0.779781,0.22104 -0.976563,0.57617 l -0.271484,0.49024 a 0.26460996,0.26460996 0 0 0 0.203125,0.39062 l 5.904296,0.66016 a 0.26460996,0.26460996 0 0 0 0.267579,-0.38086 l -0.796875,-1.58984 a 0.26460996,0.26460996 0 0 0 -0.236328,-0.14649 z"
           id="path1449506" />
        <path
           style="color:#000000;fill:#3a4d5c;stroke-width:0.794882;stroke-linecap:round;stroke-linejoin:round;-inkscape-stroke:none"
           d="m -15.917969,313.0293 c -0.557923,0 -1.015625,0.4577 -1.015625,1.01562 v 0.57227 a 0.26460996,0.26460996 0 0 0 0.263672,0.26367 h 1.324219 a 0.26460996,0.26460996 0 0 0 0.263672,-0.26367 v -1.0586 c 0,-0.28911 -0.24019,-0.52929 -0.529297,-0.52929 z"
           id="path1449500" />
        <path
           style="color:#000000;fill:#fec872;stroke-width:0.794882;stroke-linecap:round;stroke-linejoin:round;-inkscape-stroke:none"
           d="m -25.400391,314.35156 c -0.425994,0 -0.812974,0.2537 -0.982421,0.64453 l -1.279297,2.95508 c -0.04158,0.0959 -0.112525,0.17506 -0.201172,0.23047 l -1.410156,0.88281 c -0.387754,0.24234 -0.625,0.66776 -0.625,1.125 v 2.05664 c 0,0.58137 0.477225,1.0586 1.058593,1.0586 h 14.023438 c 0.72748,0 1.322265,-0.59479 1.322265,-1.32227 v -6.61523 c 0,-0.55792 -0.457701,-1.01563 -1.015625,-1.01563 z"
           id="path1437303" />
        <path
           id="path331542"
           style="display:inline;fill:#fca311;fill-opacity:1;stroke-width:0.794882;stroke-linecap:round;stroke-linejoin:round"
           d="m -24.527318,322.90746 c 5e-6,-1.05994 -0.871728,-1.93167 -1.931665,-1.93167 -1.059937,0 -1.931671,0.87172 -1.931666,1.93167 z"
           sodipodi:nodetypes="cccc" />
        <path
           id="path327107"
           style="display:inline;fill:#fca311;fill-opacity:1;stroke-width:3.00428;stroke-linecap:round;stroke-linejoin:round"
           d="m -66.001953,154.61719 c -4.006057,0 -7.3008,3.29467 -7.300781,7.30078 2e-6,0.51445 0.05508,1.01622 0.158203,1.50195 h 14.287109 c 0.10312,-0.48573 0.156248,-0.9875 0.15625,-1.50195 1.9e-5,-4.00607 -3.29472,-7.30078 -7.300781,-7.30078 z"
           transform="matrix(0.26458334,0,0,0.26458334,0,280.06666)" />
        <path
           style="color:#000000;fill:#3a4d5c;stroke-width:0.794882;stroke-linecap:round;stroke-linejoin:round;-inkscape-stroke:none"
           d="m -27.207031,321.71876 h -0.759766 l -0.753904,-0.49413 -0.794924,-0.39651 c -0.176537,-0.0881 -0.383968,0.041 -0.382812,0.23829 v 1.17968 c 0,0.58137 0.477225,1.0586 1.058593,1.0586 h 2.75586 z"
           id="path1436689"
           sodipodi:nodetypes="cccccsscc" />
        <path
           id="path332682"
           style="display:inline;fill:#143441;fill-opacity:1;stroke-width:3.00428;stroke-linecap:round;stroke-linejoin:round"
           d="m -105.72656,157.4082 c -0.98549,1.24515 -1.57618,2.8133 -1.57617,4.50977 0,0.51443 0.0551,1.01621 0.1582,1.50195 h 8.558592 a 1.0001006,1.0001006 0 0 0 0.6875,-1.72851 l -4.244142,-4 a 1.0001006,1.0001006 0 0 0 -0.6875,-0.26563 h -2.87109 z"
           transform="matrix(0.26458334,0,0,0.26458334,0,280.06666)" />
        <path
           style="color:#000000;fill:#3a4d5c;stroke-width:0.794882;stroke-linecap:round;stroke-linejoin:round;-inkscape-stroke:none"
           d="m -27.307301,323.30468 h 12.490895 c 0.72748,0 1.322265,-0.59478 1.322265,-1.32227 -5.16e-4,-0.14541 -0.118264,-0.26316 -0.263672,-0.26367 l -12.428395,10e-6 z"
           id="path1443226"
           sodipodi:nodetypes="cscccc" />
        <path
           id="path328206"
           style="display:inline;fill:#143441;fill-opacity:1;stroke-width:3.00428;stroke-linecap:round;stroke-linejoin:round"
           d="m -71.738281,157.42578 c -0.977276,1.24235 -1.564461,2.80358 -1.564453,4.49219 2e-6,0.51445 0.05508,1.01622 0.158203,1.50195 h 14.287109 c 0.10312,-0.48573 0.156248,-0.9875 0.15625,-1.50195 8e-6,-1.68859 -0.587178,-3.24984 -1.564453,-4.49219 z"
           transform="matrix(0.26458334,0,0,0.26458334,0,280.06666)" />
        <path
           style="color:#000000;fill:#3a4d5c;stroke-width:0.794882;stroke-linecap:round;stroke-linejoin:round;-inkscape-stroke:none"
           d="m -26.458984,321.45312 c -0.800556,0 -1.455082,0.65452 -1.455078,1.45508 2e-6,0.80055 0.654525,1.45508 1.455078,1.45508 0.800553,0 1.455074,-0.65453 1.455078,-1.45508 2e-6,-0.80056 -0.654522,-1.45508 -1.455078,-1.45508 z"
           id="path1436695" />
        <path
           style="color:#000000;fill:#3a4d5c;stroke-width:0.794882;stroke-linecap:round;stroke-linejoin:round;-inkscape-stroke:none"
           d="m -17.462891,321.45312 c -0.800556,0 -1.455081,0.65452 -1.455078,1.45508 3e-6,0.80055 0.654525,1.45508 1.455078,1.45508 0.800553,0 1.455075,-0.65453 1.455079,-1.45508 2e-6,-0.80056 -0.654523,-1.45508 -1.455079,-1.45508 z"
           id="path1443418" />
        <path
           id="path1436677"
           style="color:#000000;fill:#ececec;stroke-width:1.58976;stroke-linecap:round;stroke-linejoin:round;-inkscape-stroke:none"
           d="m -110.73438,151.4375 c -0.76442,0.0503 -1.51293,0.22846 -2.26757,0.35938 v 4.48828 L -112,156.62305 c 0,0 4,1.20186 4,-2.5 0,-2.31366 -1.56252,-2.7123 -2.73438,-2.68555 z"
           transform="matrix(0.26458334,0,0,0.26458334,0,280.06666)"
           sodipodi:nodetypes="ccccsc" />
        <path
           id="path1437496"
           style="color:#000000;fill:#4895ef;stroke-width:1.58976;stroke-linecap:round;stroke-linejoin:round;-inkscape-stroke:none"
           d="m -100.75586,134.42188 -3.79297,8.76367 c -0.15715,0.36245 -0.42667,0.66167 -0.76172,0.87109 l -0.58398,0.36524 H -93 c 1.104571,0 2,-0.89544 2,-2 v -6 c 0,-1.10457 -0.895429,-2 -2,-2 z"
           transform="matrix(0.26458334,0,0,0.26458334,0,280.06666)" />
        <path
           style="color:#000000;fill:#4895ef;stroke-width:0.794882;stroke-linecap:round;stroke-linejoin:round;-inkscape-stroke:none"
           d="m -19.585937,315.38477 a 0.26460996,0.26460996 0 0 0 -0.263672,0.26367 l -0.0078,2.6289 a 0.26460996,0.26460996 0 0 0 0.265625,0.26563 h 3.980469 a 0.26460996,0.26460996 0 0 0 0.1875,-0.0781 l 0.794922,-0.79297 a 0.26460996,0.26460996 0 0 0 0.07617,-0.1875 v -1.36718 c -2e-6,-0.40131 -0.33112,-0.73242 -0.732422,-0.73242 z"
           id="path1448326" />
        <path
           id="path1442957"
           style="color:#000000;fill:#dc1c4b;stroke-width:3.00428;stroke-linecap:round;stroke-linejoin:round;-inkscape-stroke:none"
           d="m -51.001953,147.17578 c -0.871895,0.26571 -1.757857,0.46735 -2.642578,0.68945 -0.804291,0.20104 -1.357422,0.91308 -1.357422,1.74219 v 2.62891 c -4e-6,0.82919 0.55304,1.54111 1.357422,1.74219 0.88639,0.20995 1.766074,0.43829 2.642578,0.67968 z"
           transform="matrix(0.26458334,0,0,0.26458334,0,280.06666)"
           sodipodi:nodetypes="ccssccc" />
        <path
           style="color:#000000;fill:#fec872;fill-opacity:1;stroke-width:0.794882;stroke-linecap:round;stroke-linejoin:round;-inkscape-stroke:none"
           d="m -22.304687,315.91211 h 2.453125 v 7.39258 h -2.902344 v -6.10352 z"
           id="path1437779" />
        <path
           id="path1438667"
           style="color:#000000;fill:#4895ef;stroke-width:3.00428;stroke-linecap:round;stroke-linejoin:round;-inkscape-stroke:none"
           d="m -73.074219,145.42188 v -11.22852 c -0.125418,-0.42148 -0.511437,-0.71159 -0.951172,-0.71484 h -10.984375 c -0.426047,-2.6e-4 -0.805484,0.26942 -0.945312,0.67187 l -1.992188,5.69922 c -0.03619,0.10691 -0.05402,0.21917 -0.05273,0.33203 v 2.78906 c 0,0.81657 0.434804,1.29344 0.953125,1.71289 0.518321,0.41946 1.222448,0.73829 2.044922,0.73829 3.975911,0 7.951823,0 11.927734,0 z"
           transform="matrix(0.26458334,0,0,0.26458334,0,280.06666)"
           sodipodi:nodetypes="cccccccsscc" />
      </g>
      <path
         id="path12139-9"
         style="color:#000000;fill:#000000;stroke-width:3.00428;stroke-linecap:round;stroke-linejoin:round;-inkscape-stroke:none"
         d="m -71.290996,163.42188 c 0.657201,2.30154 2.783404,3.99804 5.289063,3.99804 2.505668,0 4.633815,-1.69846 5.291015,-4 h 4.712891 c 2.749531,0 4.996094,-2.24851 4.996094,-4.99804 0.0016,-8.58411 0,-15.9734 0,-25.00197 0,-2.10867 -1.729202,-3.83984 -3.837891,-3.83984 h -2.164062 v -2.9961 c 0,-1.09269 -0.907312,-2 -2,-2 l -1.257833,1e-5 c -1.153405,0.0296 -2.18474,0.57705 -2.871093,1.41602 h -14.863282 c -1.595482,0 -3.075413,0.8669 -3.853515,2.25977 l -0.740235,1.32031 h -13.412109 c -1.61006,0 -3.072461,0.96035 -3.712891,2.4375 -1.611826,3.71975 -3.222586,7.43898 -4.833966,11.16011 -0.15715,0.36246 -0.42667,0.66949 -0.76172,0.87891 l -5.33007,3.33594 c -1.46553,0.91593 -2.36133,2.5238 -2.36133,4.25195 v 7.77344 c 0,2.1973 1.8027,4.00195 4,4.00195 h 3.70898 c 0.6566,2.30247 2.7847,4 5.29102,4 2.506323,0 4.63246,-1.69754 5.289059,-4 z m 11.128887,-36.8379 h 1.158203 v 2.9961 H -62 v -1.1582 c 0,-1.1647 0.784781,-1.8379 1.837891,-1.8379 z m -3.839843,2.9961 h -16.292969 c 0.503625,-1.01784 1.272661,-1.57813 2.298827,-1.57813 h 13.994142 z m 4.998046,15.8418 c 0.266158,-5e-5 0.521316,-0.1062 0.708984,-0.29493 l 3.003906,-2.99609 c 0.186583,-0.18863 0.290566,-0.44367 0.289063,-0.70898 v -5.41797 c 0,-1.41313 -1.163044,-2.58399 -2.576172,-2.58399 h -27.423828 c -0.421149,0.002 -0.795994,0.26739 -0.9375,0.66406 l -2.001953,5.58008 c -0.03818,0.10656 -0.05799,0.21883 -0.05859,0.33203 v 21.42188 h -6.527344 c -0.256383,-2.79172 -2.618708,-4.99609 -5.47461,-4.99609 -1.16848,0 -2.25528,0.36892 -3.14844,0.99609 h -2.55078 l -1.8086,-1.18359 c 0.32823,-0.56847 0.50977,-1.28875 0.50977,-2.11719 0,-1.10555 -0.32045,-2.01101 -0.88672,-2.62696 -0.56626,-0.61595 -1.30674,-0.89091 -1.95508,-0.99609 -0.31404,-0.051 -0.62005,-0.067 -0.90234,-0.0625 0.23993,-0.54426 0.63815,-1.01359 1.16016,-1.33984 1.88786,-1.23473 3.98622,-2.39278 5.78906,-3.66992 h 10.79883 c 1.645021,0 2.996094,-1.35891 2.996094,-3.00391 v -6.00195 c 0,-1.64504 -1.351073,-2.9961 -2.996094,-2.9961 h -5.142578 l 0.261719,-0.60547 c 0.325531,-0.75084 1.056604,-1.23242 1.875,-1.23242 h 41.162105 c 1.027805,0 1.837895,0.81009 1.837891,1.83789 v 12.21875 l -1.121094,0.27735 c -1.684728,0.42115 -2.880852,1.94701 -2.880859,3.68359 v 2.63672 c -4e-6,1.73662 1.196127,3.2624 2.880859,3.68359 l 1.121094,0.28125 v 2.22071 c 0,1.66866 -1.327432,2.99609 -2.996094,2.99609 h -4.527344 c -0.06552,-0.71363 -0.268041,-1.39019 -0.582031,-2 h 4.103516 c 0.553046,0.003 1.003706,-0.44304 1.005859,-0.99609 0.0022,-0.55611 -0.449755,-1.00717 -1.005859,-1.00391 h -5.84961 c -0.893163,-0.62717 -1.979965,-0.99609 -3.148437,-0.99609 -2.855901,0 -5.218229,2.20437 -5.474609,4.99609 H -73 v -10.00195 h 8.998047 c 0.55305,0.003 1.003711,-0.44304 1.005859,-0.9961 -0.0022,-0.55305 -0.452813,-0.99933 -1.005859,-0.99609 H -73 v -1.42578 c -0.0022,-0.55229 -0.451617,-0.99826 -1.003906,-0.9961 -0.54924,0.002 -0.993956,0.44686 -0.996094,0.9961 v 13.41992 h -11 v -16.16211 c 0.305696,0.10416 0.640459,0.16602 0.998047,0.16602 z m -40.003906,-10.00196 h 6.011718 c 0.564121,0 0.996094,0.43196 0.996094,0.9961 v 6.00195 c 0,0.56409 -0.431973,1.00391 -0.996094,1.00391 h -9.482426 z m 13.007765,7.53318 v -2.77929 l 1.707078,-4.75389 H -75 v 7.47461 c 0,0.2796 -0.251625,0.52735 -0.996094,0.52735 h -9.005859 c -0.781063,0 -0.998094,-0.16726 -0.998094,-0.46878 z M -73,135.41992 h 15.421875 c 0.332258,0 0.574219,0.25177 0.574219,0.58399 v 5.0039 l -2.41211,2.41407 H -73 Z m -20.498047,12.00196 c -0.553806,-0.003 -1.004783,0.44423 -1.005859,0.99804 -0.0022,0.55611 0.449755,1.00717 1.005859,1.00391 h 0.996094 c 0.555341,0.002 1.006081,-0.44857 1.003906,-1.00391 -0.0011,-0.55305 -0.450862,-1.0002 -1.003906,-0.99804 z m 40.496094,0.27929 v 6.4375 l -0.634766,-0.16015 c -0.804389,-0.20108 -1.365238,-0.91304 -1.365234,-1.74219 v -2.63672 c 4e-6,-0.82915 0.560853,-1.54108 1.365234,-1.74219 z m -57.158257,8.07035 c -0.27904,0.0453 -0.5794,0.038 -0.84179,0.0117 v -3.32226 c 0.22918,-0.0312 0.58883,-0.0316 0.84184,0.0117 0.88656,0.19302 1.15821,0.93766 1.15821,1.64452 -0.003,1.04063 -0.42515,1.5452 -1.15826,1.65434 z m 3.60943,3.48434 c 0.16492,0.10744 0.35787,0.16383 0.55469,0.16211 h 1.09961 c -0.31399,0.60981 -0.51651,1.28637 -0.58204,2 h -3.52343 c -1.1164,0 -2,-0.8836 -2,-2 v -1.61524 c 0.68913,0.0628 1.34803,-0.0469 1.8789,-0.23825 z m 6.48816,-0.66732 c 1.733474,0 3.558714,1.16753 3.558714,3.33138 0,2.16385 -1.624116,3.5 -3.498044,3.5 -1.87393,0 -3.48741,-1.10636 -3.48741,-3.29005 0,-2.18369 1.69327,-3.54133 3.42674,-3.54133 z m 37.560708,3.33152 c 0,2.10363 -1.302909,3.5 -3.5,3.5 -2.197091,0 -3.498089,-1.46768 -3.498089,-3.49996 0,-2.03228 1.563314,-3.49745 3.448265,-3.49745 1.884951,0 3.549824,1.39378 3.549824,3.49741 z m -37.537148,-1.50014 c -0.80218,0.0208 -1.46093,0.69344 -1.46094,1.5 -2e-5,0.81944 0.6806,1.5 1.5,1.5 0.819394,0 1.500019,-0.68056 1.5,-1.5 -1.1e-5,-0.81936 -0.680629,-1.5 -1.5,-1.5 -0.0128,0 -0.0263,-3.3e-4 -0.0391,0 z m 33.999998,0 c -0.802176,0.0208 -1.460927,0.69344 -1.460938,1.5 -1.9e-5,0.81944 0.680602,1.5 1.5,1.5 0.819394,0 1.500019,-0.68056 1.5,-1.5 -1.1e-5,-0.81936 -0.680629,-1.5 -1.5,-1.5 -0.0128,0 -0.02633,-3.3e-4 -0.03906,0 z"
         transform="matrix(0.26458334,0,0,0.26458334,0,280.06666)"
         sodipodi:nodetypes="cscsccscscccsccsccccssscscccccsccccccccccssccccccscccsscccccsssccsccccssccsscccsccsccccccccsccccscccssccccccccccccccccscccccccccsssccsscsccccscccccczsszzsszzzzzssssssssssssss" />
    </g>
  </g>
</svg>
